<?xml version="1.0" standalone="no"?>
<!DOCTYPE svg PUBLIC "-//W3C//DTD SVG 20010904//EN"
 "http://www.w3.org/TR/2001/REC-SVG-20010904/DTD/svg10.dtd">
<svg version="1.0" xmlns="http://www.w3.org/2000/svg"
 width="200.000000pt" height="200.000000pt" viewBox="0 0 200.000000 200.000000"
 preserveAspectRatio="xMidYMid meet">

<g transform="translate(0.000000,200.000000) scale(0.100000,-0.100000)"
fill="#ffff" stroke="none">
<path d="M1449 1887 c-101 -29 -183 -98 -236 -199 -25 -47 -28 -65 -29 -157
l-2 -104 -74 -42 -73 -43 -51 48 c-200 189 -517 183 -720 -12 -217 -208 -216
-554 3 -758 210 -197 522 -199 723 -4 l45 43 73 -43 74 -44 1 -103 c2 -98 4
-108 36 -167 41 -76 104 -135 179 -170 48 -23 71 -27 147 -27 82 0 97 3 157
33 134 66 210 186 210 332 0 145 -76 266 -210 332 -58 29 -75 33 -151 33 -99
0 -158 -18 -226 -71 l-44 -33 -71 40 c-38 22 -72 44 -74 48 -2 3 2 33 10 66
17 76 17 154 0 230 -8 33 -12 63 -10 66 2 4 36 26 74 48 l71 40 44 -33 c68
-53 127 -71 225 -71 76 0 93 4 152 33 134 66 210 186 210 332 0 144 -76 266
-206 330 -75 37 -182 48 -257 27z m172 -186 c49 -50 36 -136 -26 -166 -41 -19
-58 -19 -95 0 -39 20 -63 68 -56 110 16 83 117 115 177 56z m55 -229 c56 -28
68 -46 68 -100 l1 -47 -200 0 -200 0 -3 29 c-11 90 83 149 223 143 46 -3 84
-11 111 -25z m-822 -150 c2 -4 12 -89 21 -187 23 -268 22 -262 50 -269 26 -7
55 -52 55 -85 0 -12 -13 -35 -29 -53 -22 -25 -37 -32 -64 -32 -38 0 -74 24
-86 57 -7 17 -20 19 -176 17 l-169 -1 -31 -36 c-26 -31 -39 -37 -70 -37 -30 0
-43 7 -66 32 -16 18 -29 41 -29 53 0 31 27 77 51 84 11 4 18 9 15 12 -3 3 -17
-2 -31 -11 -25 -16 -45 -14 -45 5 0 5 15 18 32 29 67 41 159 14 192 -55 l17
-35 128 0 127 0 17 35 c9 20 33 45 52 56 26 16 35 28 35 47 0 33 -18 240 -26
300 l-5 42 -60 0 c-42 0 -59 4 -59 13 0 8 3 17 7 20 9 10 141 9 147 -1z m-429
-226 c13 -13 38 -27 54 -31 34 -7 71 -47 71 -76 0 -26 -37 -25 -45 1 -8 26
-54 38 -69 18 -24 -33 -97 -51 -111 -28 -3 6 -19 10 -35 10 -15 0 -30 6 -33
14 -8 19 1 26 35 26 41 0 37 28 -4 32 -21 2 -33 8 -33 18 0 10 12 16 33 18 17
2 32 7 32 13 0 5 18 9 40 9 30 0 47 -7 65 -24z m1196 -455 c81 -81 -18 -219
-120 -167 -40 21 -65 69 -57 111 16 83 117 115 177 56z m32 -217 c61 -21 97
-63 97 -115 l0 -39 -205 0 -205 0 0 30 c0 62 41 107 120 131 44 13 145 10 193
-7z"/>
<path d="M381 878 c2 -2 18 -14 34 -28 l30 -25 -24 28 c-14 15 -29 27 -34 27
-6 0 -8 -1 -6 -2z"/>
<path d="M814 848 l-19 -23 23 19 c21 18 27 26 19 26 -2 0 -12 -10 -23 -22z"/>
<path d="M337 833 c-10 -3 -22 -16 -28 -29 -18 -49 28 -88 73 -62 l23 12 -30
6 c-42 7 -47 40 -6 40 35 0 41 14 12 30 -11 5 -21 9 -23 9 -2 -1 -11 -3 -21
-6z"/>
<path d="M842 812 c-26 -45 17 -95 63 -74 26 12 35 39 24 70 -12 32 -29 27
-29 -7 0 -53 -34 -46 -42 9 l-3 25 -13 -23z"/>
</g>
</svg>
